<svg width="50" height="50" viewBox="0 0 50 50" fill="none" xmlns="http://www.w3.org/2000/svg">
<rect width="50" height="50" rx="10" fill="#141B2D"/>
<path d="M36 18.448C32.6267 16.864 28.96 16 25 16C21.04 16 17.2267 16.864 14 18.448M33.5067 23.632C30.8667 22.48 27.9333 21.76 25 21.76C22.0667 21.76 18.9867 22.48 16.3467 23.632M31.0133 28.816C29.1067 27.952 27.0533 27.52 25 27.52C22.9467 27.52 20.7467 27.952 18.9867 28.816M28.3733 34C27.3467 33.568 26.1733 33.28 25 33.28C23.8267 33.28 22.5067 33.568 21.48 34" stroke="#01F593" stroke-width="1.5" stroke-linecap="round" stroke-linejoin="round"/>
</svg>
