<svg width="48" height="48" viewBox="0 0 48 48" fill="none" xmlns="http://www.w3.org/2000/svg">
<rect width="48" height="48" rx="9" fill="#141B2D"/>
<g clip-path="url(#clip0_729_489)">
<mask id="mask0_729_489" style="mask-type:luminance" maskUnits="userSpaceOnUse" x="10" y="12" width="28" height="24">
<path d="M33.9163 14.6667H14.083C13.1165 14.6667 12.333 15.4502 12.333 16.4167V31.5833C12.333 32.5498 13.1165 33.3333 14.083 33.3333H33.9163C34.8828 33.3333 35.6663 32.5498 35.6663 31.5833V16.4167C35.6663 15.4502 34.8828 14.6667 33.9163 14.6667Z" stroke="white" stroke-width="4" stroke-linejoin="round"/>
<path d="M12.333 16.4167C12.333 15.9525 12.5174 15.5074 12.8456 15.1792C13.1738 14.851 13.6189 14.6667 14.083 14.6667H33.9163C34.3805 14.6667 34.8256 14.851 35.1538 15.1792C35.482 15.5074 35.6663 15.9525 35.6663 16.4167V21.6667H12.333V16.4167Z" fill="white" stroke="white" stroke-width="4"/>
<path d="M14.6667 18.1666C14.6667 17.5223 15.189 17 15.8333 17C16.4777 17 17 17.5223 17 18.1666C17 18.811 16.4777 19.3333 15.8333 19.3333C15.189 19.3333 14.6667 18.811 14.6667 18.1666Z" fill="black"/>
<path d="M18.1667 18.1666C18.1667 17.5223 18.689 17 19.3333 17C19.9777 17 20.5 17.5223 20.5 18.1666C20.5 18.811 19.9777 19.3333 19.3333 19.3333C18.689 19.3333 18.1667 18.811 18.1667 18.1666Z" fill="black"/>
</mask>
<g mask="url(#mask0_729_489)">
<path d="M10 10H38V38H10V10Z" fill="#00F592"/>
</g>
</g>
<defs>
<clipPath id="clip0_729_489">
<rect width="28" height="28" fill="white" transform="translate(10 10)"/>
</clipPath>
</defs>
</svg>
