<svg width="20" height="21" viewBox="0 0 20 21" fill="none" xmlns="http://www.w3.org/2000/svg">
<path fill-rule="evenodd" clip-rule="evenodd" d="M2 0C0.895431 0 0 0.89543 0 2V19C0 20.1046 0.895431 21 2 21H18C19.1046 21 20 20.1046 20 19V2C20 0.895431 19.1046 0 18 0H2ZM15 8.96825V14.3651C15 14.5335 14.9342 14.695 14.8169 14.814C14.6997 14.9331 14.5408 15 14.375 15H11.875C11.7092 15 11.5503 14.9331 11.4331 14.814C11.3158 14.695 11.25 14.5335 11.25 14.3651V12.4603C11.25 12.2919 11.1842 12.1304 11.0669 12.0114C10.9497 11.8923 10.7908 11.8254 10.625 11.8254H9.375C9.20924 11.8254 9.05027 11.8923 8.93306 12.0114C8.81585 12.1304 8.75 12.2919 8.75 12.4603V14.3651C8.75 14.5335 8.68415 14.695 8.56694 14.814C8.44973 14.9331 8.29076 15 8.125 15H5.625C5.45924 15 5.30027 14.9331 5.18306 14.814C5.06585 14.695 5 14.5335 5 14.3651V8.96825C5 8.86969 5.02259 8.77247 5.06598 8.68431C5.10938 8.59615 5.17238 8.51946 5.25 8.46032L9.625 5.12698C9.73318 5.04456 9.86477 5 10 5C10.1352 5 10.2668 5.04456 10.375 5.12698L14.75 8.46032C14.8276 8.51946 14.8906 8.59615 14.934 8.68431C14.9774 8.77247 15 8.86969 15 8.96825Z" fill="#01F593"/>
</svg>
