<svg width="50" height="50" viewBox="0 0 50 50" fill="none" xmlns="http://www.w3.org/2000/svg">
<rect width="50" height="50" rx="10" fill="#141B2D"/>
<g clip-path="url(#clip0_782_455)">
<path d="M25 32.2618L30.8198 35.7914C31.8856 36.4383 33.1898 35.4821 32.9094 34.2727L31.3667 27.6353L36.5134 23.1635C37.453 22.3479 36.9482 20.801 35.7141 20.7026L28.9407 20.1261L26.2902 13.8543C25.8134 12.7152 24.1866 12.7152 23.7098 13.8543L21.0593 20.112L14.2859 20.6886C13.0518 20.787 12.547 22.3338 13.4866 23.1494L18.6333 27.6213L17.0906 34.2586C16.8102 35.468 18.1144 36.4242 19.1802 35.7774L25 32.2618Z" fill="#01F593"/>
</g>
<defs>
<clipPath id="clip0_782_455">
<rect width="24" height="24" fill="white" transform="translate(13 13)"/>
</clipPath>
</defs>
</svg>
