<svg width="20" height="21" viewBox="0 0 20 21" fill="none" xmlns="http://www.w3.org/2000/svg">
<path fill-rule="evenodd" clip-rule="evenodd" d="M2 0C0.895431 0 0 0.89543 0 2V19C0 20.1046 0.895431 21 2 21H18C19.1046 21 20 20.1046 20 19V2C20 0.895431 19.1046 0 18 0H2ZM8.23438 9.26562C8.72396 9.75521 9.3125 10 10 10C10.6875 10 11.276 9.75521 11.7656 9.26562C12.2552 8.77604 12.5 8.1875 12.5 7.5C12.5 6.8125 12.2552 6.22396 11.7656 5.73438C11.276 5.24479 10.6875 5 10 5C9.3125 5 8.72396 5.24479 8.23438 5.73438C7.74479 6.22396 7.5 6.8125 7.5 7.5C7.5 8.1875 7.74479 8.77604 8.23438 9.26562ZM5 13.25V15H15V13.25C15.0004 12.8963 14.9094 12.5708 14.7269 12.2737C14.5444 11.9767 14.3021 11.75 14 11.5938C13.3542 11.2717 12.6979 11.0296 12.0312 10.8675C11.3646 10.7054 10.6875 10.6246 10 10.625C9.3125 10.6254 8.63542 10.7063 7.96875 10.8675C7.30208 11.0287 6.64583 11.2708 6 11.5938C5.69833 11.7504 5.45625 11.9771 5.27375 12.2737C5.09125 12.5704 5 12.8958 5 13.25Z" fill="#01F593"/>
</svg>
