<svg width="48" height="48" viewBox="0 0 48 48" fill="none" xmlns="http://www.w3.org/2000/svg">
<rect width="48" height="48" rx="9" fill="#141B2D"/>
<path d="M17.8399 20.6334L13.7996 24L17.8399 27.3665C17.9739 27.4764 18.0849 27.6116 18.1663 27.7645C18.2478 27.9174 18.2982 28.0849 18.3146 28.2574C18.331 28.4298 18.3131 28.6038 18.2619 28.7693C18.2108 28.9349 18.1273 29.0886 18.0165 29.2217C17.9056 29.3548 17.7695 29.4647 17.6159 29.5449C17.4624 29.6252 17.2945 29.6742 17.1219 29.6892C16.9493 29.7043 16.7754 29.685 16.6103 29.6325C16.4452 29.58 16.2922 29.4954 16.1599 29.3834L10.9099 25.0084C10.7621 24.8852 10.6431 24.7311 10.5615 24.5568C10.4798 24.3825 10.4375 24.1924 10.4375 24C10.4375 23.8075 10.4798 23.6174 10.5615 23.4432C10.6431 23.2689 10.7621 23.1147 10.9099 22.9915L16.1599 18.6165C16.4278 18.397 16.7715 18.2923 17.1162 18.3251C17.4609 18.3579 17.7787 18.5256 18.0003 18.7917C18.222 19.0577 18.3295 19.4006 18.2994 19.7456C18.2694 20.0905 18.1042 20.4097 17.8399 20.6334ZM37.0899 22.9915L31.8399 18.6165C31.7077 18.5046 31.5546 18.4199 31.3895 18.3675C31.2244 18.315 31.0506 18.2957 30.878 18.3107C30.7054 18.3257 30.5375 18.3748 30.384 18.455C30.2304 18.5353 30.0943 18.6451 29.9834 18.7782C29.8725 18.9113 29.7891 19.0651 29.7379 19.2306C29.6868 19.3961 29.6689 19.5701 29.6853 19.7426C29.7017 19.9151 29.7521 20.0826 29.8335 20.2355C29.915 20.3884 30.0259 20.5236 30.1599 20.6334L34.2002 24L30.1599 27.3665C30.0259 27.4764 29.915 27.6116 29.8335 27.7645C29.7521 27.9174 29.7017 28.0849 29.6853 28.2574C29.6689 28.4298 29.6868 28.6038 29.7379 28.7693C29.7891 28.9349 29.8725 29.0886 29.9834 29.2217C30.0943 29.3548 30.2304 29.4647 30.384 29.5449C30.5375 29.6252 30.7054 29.6742 30.878 29.6892C31.0506 29.7043 31.2244 29.685 31.3895 29.6325C31.5546 29.58 31.7077 29.4954 31.8399 29.3834L37.0899 25.0084C37.2378 24.8852 37.3568 24.7311 37.4384 24.5568C37.52 24.3825 37.5624 24.1924 37.5624 24C37.5624 23.8075 37.52 23.6174 37.4384 23.4432C37.3568 23.2689 37.2378 23.1147 37.0899 22.9915ZM27.9484 13.1412C27.7864 13.0823 27.6143 13.0559 27.4421 13.0635C27.2699 13.071 27.1008 13.1125 26.9446 13.1854C26.7884 13.2583 26.6481 13.3613 26.5317 13.4885C26.4153 13.6157 26.3251 13.7645 26.2662 13.9265L19.2662 33.1765C19.1475 33.5036 19.1636 33.8644 19.3109 34.1796C19.4581 34.4949 19.7245 34.7387 20.0515 34.8576C20.1951 34.9106 20.3469 34.9377 20.4999 34.9375C20.7694 34.9375 21.0324 34.8546 21.2531 34.7C21.4738 34.5455 21.6416 34.3267 21.7337 34.0734L28.7337 14.8234C28.7926 14.6614 28.819 14.4894 28.8114 14.3171C28.8039 14.1449 28.7624 13.9759 28.6895 13.8196C28.6166 13.6634 28.5136 13.5231 28.3864 13.4067C28.2593 13.2903 28.1104 13.2001 27.9484 13.1412Z" fill="#00F592"/>
</svg>
