<svg width="21" height="21" viewBox="0 0 21 21" fill="none" xmlns="http://www.w3.org/2000/svg">
<path fill-rule="evenodd" clip-rule="evenodd" d="M1.50032 0.0629272C0.637542 0.284838 0 1.06797 0 2V19C0 20.1046 0.89543 21 2 21H19C20.1046 21 21 20.1046 21 19V2C21 1.06815 20.3627 0.28514 19.5002 0.0630554H4.89951V0.0629272H1.50032ZM1.50055 0.0628662H19.4994C19.3398 0.021826 19.1725 0 19 0H2C1.82755 0 1.6602 0.021826 1.50055 0.0628662ZM11.9005 13.1878H7.70054C7.30387 13.1878 6.9716 13.3138 6.70374 13.5658C6.43587 13.8178 6.30147 14.1293 6.30054 14.5003C6.2996 14.8713 6.434 15.1832 6.70374 15.4361C6.97347 15.6889 7.30574 15.8145 7.70054 15.8128H9.10054C9.10054 16.1846 9.23494 16.4966 9.50374 16.7485C9.77254 17.0005 10.1048 17.1261 10.5005 17.1252C10.8963 17.1244 11.229 16.9984 11.4987 16.7472C11.7685 16.4961 11.9024 16.1846 11.9005 15.8128H13.3005C13.6972 15.8128 14.0299 15.6868 14.2987 15.4348C14.5675 15.1828 14.7015 14.8713 14.7005 14.5003V10.5629C14.7005 10.191 14.5661 9.87949 14.2973 9.62837C14.0285 9.37725 13.6963 9.25126 13.3005 9.25038H9.10054V7.93791H13.3005C13.6972 7.93791 14.0299 7.81191 14.2987 7.55991C14.5675 7.30792 14.7015 6.99642 14.7005 6.62543C14.6996 6.25444 14.5652 5.94294 14.2973 5.69095C14.0295 5.43895 13.6972 5.31296 13.3005 5.31296H11.9005C11.9005 4.94109 11.7661 4.62959 11.4973 4.37847C11.2285 4.12735 10.8963 4.00136 10.5005 4.00048C10.1272 4.00048 9.86494 4.15929 9.71374 4.47691C9.56254 4.79453 9.35814 5.07321 9.10054 5.31296H7.70054C7.30387 5.31296 6.9716 5.43895 6.70374 5.69095C6.43587 5.94294 6.30147 6.25444 6.30054 6.62543V10.5629C6.30054 10.9347 6.43494 11.2467 6.70374 11.4986C6.97254 11.7506 7.3048 11.8762 7.70054 11.8753H11.9005V13.1878Z" fill="#01F593"/>
</svg>
