<svg width="40" height="40" viewBox="0 0 40 40" fill="none" xmlns="http://www.w3.org/2000/svg">
<path d="M16 25.9047L26.38 19.9999L16 14.0952V25.9047ZM39.12 10.4933C39.38 11.4184 39.56 12.6584 39.68 14.233C39.82 15.8076 39.88 17.1657 39.88 18.3466L40 19.9999C40 24.3104 39.68 27.4793 39.12 29.5066C38.62 31.278 37.46 32.4196 35.66 32.9117C34.72 33.1676 33 33.3447 30.36 33.4628C27.76 33.6006 25.38 33.6596 23.18 33.6596L20 33.7777C11.62 33.7777 6.4 33.4628 4.34 32.9117C2.54 32.4196 1.38 31.278 0.88 29.5066C0.62 28.5815 0.44 27.3415 0.32 25.7669C0.18 24.1923 0.12 22.8342 0.12 21.6533L0 19.9999C0 15.6895 0.32 12.5206 0.88 10.4933C1.38 8.72185 2.54 7.58026 4.34 7.0882C5.28 6.83233 7 6.65518 9.64 6.53709C12.24 6.39931 14.62 6.34026 16.82 6.34026L20 6.22217C28.38 6.22217 33.6 6.53709 35.66 7.0882C37.46 7.58026 38.62 8.72185 39.12 10.4933Z" fill="#FF0942"/>
</svg>
