<svg width="24" height="24" viewBox="0 0 24 24" fill="none" xmlns="http://www.w3.org/2000/svg">
<path d="M9.6 15.5429L15.828 12L9.6 8.45715V15.5429ZM23.472 6.296C23.628 6.85105 23.736 7.59505 23.808 8.53981C23.892 9.48457 23.928 10.2994 23.928 11.008L24 12C24 14.5863 23.808 16.4876 23.472 17.704C23.172 18.7669 22.476 19.4518 21.396 19.747C20.832 19.9006 19.8 20.0069 18.216 20.0777C16.656 20.1604 15.228 20.1958 13.908 20.1958L12 20.2667C6.972 20.2667 3.84 20.0777 2.604 19.747C1.524 19.4518 0.828 18.7669 0.528 17.704C0.372 17.149 0.264 16.405 0.192 15.4602C0.108 14.5154 0.0719999 13.7006 0.0719999 12.992L0 12C0 9.41372 0.192 7.51238 0.528 6.296C0.828 5.23315 1.524 4.54819 2.604 4.25296C3.168 4.09943 4.2 3.99315 5.784 3.92229C7.344 3.83962 8.772 3.80419 10.092 3.80419L12 3.73334C17.028 3.73334 20.16 3.92229 21.396 4.25296C22.476 4.54819 23.172 5.23315 23.472 6.296Z" fill="#FF0942"/>
</svg>
